<svg width="80" height="80" viewBox="0 0 80 80" fill="none" xmlns="http://www.w3.org/2000/svg">
<path fill-rule="evenodd" clip-rule="evenodd" d="M40.0003 5.00009C31.691 5.00121 23.6531 7.95854 17.3245 13.3431C10.9959 18.7276 6.78941 26.1881 5.45751 34.3899C4.12561 42.5918 5.75518 51 10.0547 58.1104C14.3543 65.2208 21.0433 70.5697 28.9252 73.2001C30.6752 73.5251 31.4252 72.4501 31.4252 71.5251V65.5751C21.7002 67.6751 19.6502 60.8751 19.6502 60.8751C18.9664 58.7322 17.527 56.9108 15.6002 55.7501C12.4252 53.6001 15.8502 53.6251 15.8502 53.6251C16.9593 53.7818 18.0178 54.1898 18.945 54.8181C19.8722 55.4463 20.6436 56.2782 21.2002 57.2501C22.1686 58.9869 23.7871 60.2681 25.6998 60.8119C27.6126 61.3557 29.663 61.1177 31.4003 60.1501C31.5414 58.3763 32.3234 56.7145 33.6003 55.4751C25.8503 54.5751 17.6752 51.5751 17.6752 38.1751C17.6186 34.6948 18.9083 31.3272 21.2752 28.7751C20.2039 25.7606 20.3292 22.45 21.6252 19.5251C21.6252 19.5251 24.5503 18.5751 31.2502 23.1001C36.9789 21.5375 43.0216 21.5375 48.7502 23.1001C55.4252 18.5751 58.3503 19.5251 58.3503 19.5251C59.6463 22.45 59.7716 25.7606 58.7002 28.7751C61.0672 31.3272 62.3569 34.6948 62.3002 38.1751C62.3002 51.6251 54.1252 54.5751 46.3252 55.4501C47.1608 56.297 47.8051 57.3131 48.2148 58.4301C48.6245 59.547 48.79 60.7388 48.7002 61.9251V71.5251C48.7002 72.6751 49.3252 73.5501 51.2002 73.2001C59.0926 70.5664 65.7885 65.2073 70.0874 58.0837C74.3863 50.9602 76.0068 42.5382 74.6585 34.3281C73.3102 26.1179 69.0812 18.6565 62.7299 13.282C56.3786 7.90749 48.3204 4.97134 40.0003 5.00009Z" fill="black"/>
</svg>
